<?xml version="1.0" encoding="UTF-8" standalone="no"?>
<!DOCTYPE svg PUBLIC "-//W3C//DTD SVG 1.1//EN" "http://www.w3.org/Graphics/SVG/1.1/DTD/svg11.dtd">
<svg width="100%" height="100%" viewBox="0 0 2047 1713" version="1.1" xmlns="http://www.w3.org/2000/svg" xmlns:xlink="http://www.w3.org/1999/xlink" xml:space="preserve" xmlns:serif="http://www.serif.com/" style="fill-rule: evenodd; clip-rule: evenodd; stroke-linejoin: round; stroke-miterlimit: 2">
    <g transform="matrix(1,0,0,1,-55.7842,-709.157)">
        <g>
            <g id="ESCAPE">
                <g id="Escape">
                    <path d="M649.176,2230.4C668.305,2230.4 694.118,2226.24 711.676,2234.68C724.176,2241.09 734.268,2258.11 749.155,2259.9C760.601,2261.27 771.28,2250.01 769.76,2238.74C765.843,2211.69 727.526,2201.62 707.51,2191.34C679.335,2176.87 656.397,2152.23 638.843,2126.24C610.718,2084.59 593.443,2039.77 576.76,1992.9C544.493,1902.26 519.622,1806.99 529.051,1709.57C530.318,1697.07 531.793,1680.96 537.835,1669.09C566.943,1611.88 630.789,1638.74 663.205,1676.61C705.789,1726.63 732.16,1789.76 752.905,1851.24C765.843,1890.47 778.226,1926.24 778.343,1967.9C757.01,1967.9 724.176,1974.07 704.697,1965.39C696.006,1961.88 693.577,1949.79 687.366,1942.6C683.286,1937.87 675.869,1937.54 669.968,1935.14C659.559,1930.91 648.676,1936.28 646.58,1947.52C644.051,1961.06 654.651,1974.21 661.676,1984.57C687.893,2017.9 735.018,2023.63 765.676,2052C807.105,2090.34 821.451,2148.62 833.905,2201.24C839.459,2224.7 847.105,2247.83 848.801,2272.07C850.23,2292.9 850.422,2314.24 848.789,2334.57C844.226,2391.29 794.389,2435.6 740.843,2395.32C692.297,2358.81 657.51,2289.71 649.176,2230.4ZM1074.18,2192.9C1074.18,2252.77 1078.34,2317.12 1049.9,2372.07C1025.41,2418.66 970.964,2420.7 938.88,2380.4C928.343,2367.9 919.797,2352.06 911.676,2337.55C877.647,2272.07 862.089,2186.11 851.43,2113.74C842.143,2051.24 833.285,1986.01 832.51,1922.07C831.622,1846.24 825.885,1765.52 851.847,1692.9C868.468,1647.07 907.51,1620.11 956.322,1643.84C999.176,1664.96 1020.01,1720.85 1032.18,1763.74C1056.21,1851.24 1070.01,1931.1 1070.01,2022.07L995.01,2022.07C986.676,1997.89 982.51,1963.74 965.843,1943.52C947.501,1921.33 928.343,1941.85 925.068,1963.74C917.976,2008.59 940.11,2170.96 945.885,2205.4C948.593,2222.07 969.889,2273.95 992.66,2252.77C1006.1,2240.27 1006.16,2210 1007.51,2192.9L1074.18,2192.9ZM145.01,1638.74L390.843,1638.74C414.222,1698.43 433.676,1757.04 454.51,1817.9C463.326,1852.73 479.187,1889.06 486.676,1926.24L361.676,1926.24C368.272,1944.67 391.88,2005.82 404.23,2011.22C422.702,2019.3 495.117,2011.54 506.139,2018.02C522.535,2028 526.151,2051.25 531.93,2067.9C546.739,2110.58 571.835,2155.65 574.176,2201.24L478.343,2201.24C486.676,2218.5 497.764,2253.57 515.843,2261.22C532.368,2267.93 602.54,2260.87 613.518,2268.02C623.426,2274.71 664.189,2373.35 665.843,2409.57L557.51,2409.57C542.422,2409.57 521.747,2413.74 509.134,2402.89C490.843,2388.74 484.476,2358.56 475.089,2338.74C453.343,2294.05 273.776,1935.11 211.676,1797.07C198.022,1765.13 145.01,1664.25 145.01,1638.74ZM1182.51,1638.74L1307.51,1638.74C1307.51,1761.88 1300.63,2116.08 1298.01,2174.62C1292.45,2248.56 1297.09,2336.63 1290.84,2409.57C1277.94,2409.57 1250.62,2413.74 1239.93,2405.4C1234.7,2393.31 1241.16,2351.7 1236.68,2334.57L1165.84,2334.57L1157.51,2409.57L1103.34,2409.57C1103.34,2358.66 1110.25,2310.09 1115.13,2259.57C1127.15,2135.45 1140.84,2012.43 1156.32,1888.74C1166.61,1811.11 1168.78,1733.83 1182.51,1638.74ZM1220.01,1978.24C1210.73,2012.92 1195.47,2143.28 1195.01,2165.74L1228.34,2165.74C1228.34,2122.34 1227.56,1996.22 1220.01,1978.24ZM1332.51,2409.57C1336.81,2362.98 1386.13,2072.07 1403.01,1972.07C1413.97,1907.14 1426.02,1841.34 1434.9,1776.24C1440.13,1737.96 1441.58,1696.24 1455.35,1659.65C1465.25,1633.35 1492.6,1638.74 1515.84,1638.74C1561.68,1638.74 1632.87,1633.85 1650.7,1689.46C1663.63,1729.78 1661.68,1768.21 1658.22,1809.57C1650.26,1891.79 1629.69,1969.1 1602.49,2047.07C1584.88,2097.54 1568.91,2148.66 1537.63,2192.9C1523.91,2212.28 1507.39,2232.75 1483.51,2238.51C1468.02,2242.26 1443.15,2233.52 1430.8,2245.41C1419.88,2255.92 1414.53,2278.86 1411.67,2292.9C1408.54,2308.31 1389.96,2386.39 1384.94,2409.57L1332.51,2409.57ZM1495.01,1923.07C1491.35,1941.73 1474.18,2027.9 1474.18,2052.24C1485.94,2052.24 1503,2055.11 1513.18,2048.07C1523.27,2040.86 1539.37,1975.41 1529.96,1940.94C1525.59,1924.91 1511.68,1921.69 1495.01,1923.07ZM1528.34,2409.57C1536.47,2345.29 1561.68,2287.81 1581.06,2226.24C1615.48,2114.95 1654,2004.07 1689.53,1892.96C1694.84,1874.32 1701.53,1857.51 1707.4,1838.74C1721.9,1792.9 1737.26,1747.27 1751.34,1701.24C1756.83,1683.77 1762.68,1653.45 1779.49,1643.02C1796.52,1632.43 1829.81,1638.74 1849.18,1638.74L2015.84,1638.74C2015.14,1668.67 2001.86,1694.95 1990.22,1722.07C1972.03,1764.42 1955.09,1805.58 1935.33,1847.07C1925.37,1868.51 1914.37,1908.57 1893.38,1922.07C1866.51,1933.63 1770.01,1924.96 1759.63,1935.89C1748.51,1947.6 1734.11,2001.4 1732.51,2013.74L1836.68,2013.74C1829.81,2059.57 1770.03,2184.59 1758.97,2194.56C1734.9,2216.26 1687.5,2187.74 1661.42,2204.52C1652.15,2210.67 1641.88,2253.38 1640.84,2263.74L1745.01,2263.74C1739.42,2301.24 1692.5,2401.24 1677.79,2407.06C1663.68,2413 1643.34,2409.57 1628.34,2409.57L1528.34,2409.57Z" style="fill: #fff; stroke: #000; stroke-opacity: 0; stroke-width: 20.83px"></path>
                </g>
            </g>
            <g transform="matrix(0.725409,-0.688318,0.688318,0.725409,-686.314,795.864)">
                <g id="Fruity">
                    <g>
                        <g transform="matrix(221.778,-37.5063,58.3621,345.1,423.957,1337.99)">
                            <path d="M0.127,-0.7L0.763,-0.7C0.77,-0.7 0.777,-0.697 0.782,-0.692C0.787,-0.687 0.79,-0.68 0.79,-0.673L0.79,-0.521C0.79,-0.514 0.787,-0.507 0.782,-0.502C0.777,-0.497 0.77,-0.494 0.763,-0.494L0.37,-0.494L0.37,-0.43L0.698,-0.43C0.705,-0.43 0.712,-0.427 0.717,-0.422C0.722,-0.417 0.725,-0.41 0.725,-0.403L0.725,-0.252C0.725,-0.245 0.722,-0.238 0.717,-0.233C0.712,-0.228 0.705,-0.225 0.698,-0.225L0.37,-0.225L0.37,-0.027C0.37,-0.02 0.367,-0.013 0.362,-0.008C0.357,-0.003 0.35,-0 0.343,-0L0.127,-0C0.12,-0 0.113,-0.003 0.108,-0.008C0.103,-0.013 0.1,-0.02 0.1,-0.027L0.1,-0.673C0.1,-0.68 0.103,-0.687 0.108,-0.692C0.113,-0.697 0.12,-0.7 0.127,-0.7Z" style="fill: #fff; fill-rule: nonzero"></path>
                        </g>
                        <g transform="matrix(221.193,40.8115,-63.5052,344.19,614.296,1284.4)">
                            <path d="M0.822,-0.031C0.823,-0.028 0.824,-0.025 0.824,-0.02C0.824,-0.015 0.822,-0.011 0.818,-0.007C0.813,-0.002 0.808,-0 0.802,-0L0.575,-0C0.555,-0 0.541,-0.008 0.533,-0.025L0.445,-0.223L0.361,-0.223L0.361,-0.027C0.361,-0.02 0.358,-0.013 0.353,-0.008C0.348,-0.003 0.341,-0 0.334,-0L0.118,-0C0.111,-0 0.104,-0.003 0.099,-0.008C0.094,-0.013 0.091,-0.02 0.091,-0.027L0.091,-0.673C0.091,-0.68 0.094,-0.687 0.099,-0.692C0.104,-0.697 0.111,-0.7 0.118,-0.7L0.507,-0.7C0.598,-0.7 0.671,-0.678 0.724,-0.635C0.777,-0.592 0.804,-0.533 0.804,-0.458C0.804,-0.367 0.769,-0.302 0.699,-0.261L0.822,-0.031ZM0.361,-0.514L0.361,-0.408L0.486,-0.408C0.501,-0.408 0.512,-0.413 0.52,-0.423C0.528,-0.432 0.532,-0.444 0.532,-0.459C0.532,-0.474 0.528,-0.487 0.521,-0.498C0.513,-0.508 0.501,-0.514 0.486,-0.514L0.361,-0.514Z" style="fill: #fff; fill-rule: nonzero"></path>
                        </g>
                        <g transform="matrix(196.474,109.5,-170.389,305.725,810.253,1301.68)">
                            <path d="M0.692,-0.071C0.626,-0.023 0.537,0.001 0.425,0.001C0.313,0.001 0.224,-0.023 0.159,-0.071C0.093,-0.119 0.06,-0.194 0.06,-0.296L0.06,-0.673C0.06,-0.681 0.063,-0.687 0.068,-0.692C0.073,-0.697 0.08,-0.7 0.087,-0.7L0.296,-0.7C0.303,-0.7 0.31,-0.697 0.315,-0.692C0.32,-0.687 0.323,-0.681 0.323,-0.673L0.323,-0.282C0.323,-0.256 0.332,-0.235 0.35,-0.221C0.369,-0.206 0.394,-0.199 0.425,-0.199C0.456,-0.199 0.481,-0.206 0.5,-0.221C0.518,-0.235 0.527,-0.256 0.527,-0.282L0.527,-0.673C0.527,-0.681 0.53,-0.687 0.535,-0.692C0.54,-0.697 0.547,-0.7 0.554,-0.7L0.763,-0.7C0.77,-0.7 0.777,-0.697 0.782,-0.692C0.787,-0.687 0.79,-0.681 0.79,-0.673L0.79,-0.296C0.79,-0.194 0.757,-0.119 0.692,-0.071Z" style="fill: #fff; fill-rule: nonzero"></path>
                        </g>
                        <g transform="matrix(82.4043,209.288,-325.666,128.226,1132.72,1517.8)">
                            <path d="M0.742,-0.495L0.561,-0.495L0.561,-0.205L0.742,-0.205C0.749,-0.205 0.756,-0.202 0.761,-0.197C0.766,-0.192 0.769,-0.185 0.769,-0.178L0.769,-0.027C0.769,-0.02 0.766,-0.013 0.761,-0.008C0.756,-0.003 0.749,-0 0.742,-0L0.108,-0C0.101,-0 0.094,-0.003 0.089,-0.008C0.084,-0.013 0.081,-0.02 0.081,-0.027L0.081,-0.178C0.081,-0.185 0.084,-0.192 0.089,-0.197C0.094,-0.202 0.101,-0.205 0.108,-0.205L0.291,-0.205L0.291,-0.495L0.108,-0.495C0.101,-0.495 0.094,-0.498 0.089,-0.503C0.084,-0.508 0.081,-0.515 0.081,-0.522L0.081,-0.673C0.081,-0.68 0.084,-0.687 0.089,-0.692C0.094,-0.697 0.101,-0.7 0.108,-0.7L0.742,-0.7C0.749,-0.7 0.756,-0.697 0.761,-0.692C0.766,-0.687 0.769,-0.68 0.769,-0.673L0.769,-0.522C0.769,-0.515 0.766,-0.508 0.761,-0.503C0.756,-0.498 0.749,-0.495 0.742,-0.495Z" style="fill: #fff; fill-rule: nonzero"></path>
                        </g>
                        <g transform="matrix(8.55511,224.764,-349.747,13.3123,1219.52,1689.15)">
                            <path d="M0.08,-0.7L0.77,-0.7C0.777,-0.7 0.784,-0.697 0.789,-0.692C0.794,-0.687 0.797,-0.68 0.797,-0.673L0.797,-0.512C0.797,-0.505 0.794,-0.498 0.789,-0.493C0.784,-0.488 0.777,-0.485 0.77,-0.485L0.555,-0.485L0.555,-0.027C0.555,-0.02 0.552,-0.013 0.547,-0.008C0.542,-0.003 0.535,-0 0.528,-0L0.322,-0C0.315,-0 0.308,-0.003 0.303,-0.008C0.298,-0.013 0.295,-0.02 0.295,-0.027L0.295,-0.485L0.08,-0.485C0.073,-0.485 0.066,-0.488 0.061,-0.493C0.056,-0.498 0.053,-0.505 0.053,-0.512L0.053,-0.673C0.053,-0.68 0.056,-0.687 0.061,-0.692C0.066,-0.697 0.073,-0.7 0.08,-0.7Z" style="fill: #fff; fill-rule: nonzero"></path>
                        </g>
                        <g transform="matrix(-66.1917,214.967,-334.502,-102.998,1244.9,1880.4)">
                            <path d="M0.582,-0.7L0.791,-0.7C0.797,-0.7 0.802,-0.698 0.807,-0.694C0.811,-0.689 0.813,-0.685 0.813,-0.68C0.813,-0.675 0.812,-0.671 0.81,-0.667L0.558,-0.25L0.558,-0.027C0.558,-0.02 0.555,-0.013 0.55,-0.008C0.545,-0.003 0.538,-0 0.531,-0L0.318,-0C0.311,-0 0.304,-0.003 0.299,-0.008C0.294,-0.013 0.291,-0.02 0.291,-0.027L0.291,-0.25L0.04,-0.667C0.038,-0.671 0.037,-0.675 0.037,-0.68C0.037,-0.685 0.039,-0.689 0.043,-0.694C0.048,-0.698 0.053,-0.7 0.059,-0.7L0.27,-0.7C0.289,-0.7 0.302,-0.692 0.311,-0.677L0.424,-0.479L0.54,-0.675C0.55,-0.692 0.564,-0.7 0.582,-0.7Z" style="fill: #fff; fill-rule: nonzero"></path>
                        </g>
                    </g>
                </g>
            </g>
            <g transform="matrix(1,0,0,1,0.013895,-118.563)">
                <g id="PALO-CESTA" serif:id="PALO CESTA">
                    <path id="Palo-cesta" serif:id="Palo cesta" d="M1083.76,1397.65L1078.87,863.075" style="fill: none; stroke: #fff; stroke-width: 50px; stroke-linecap: square; stroke-miterlimit: 1"></path>
                </g>
            </g>
            <g transform="matrix(1.26694,0,0,1.07203,-333.627,-208.45)">
                <g id="UNION-CESTA" serif:id="UNION CESTA">
                    <ellipse id="Unión-cesta" serif:id="Unión cesta" cx="1119.63" cy="1516.04" rx="39.465" ry="46.641" style="fill: none; stroke: #fff; stroke-width: 38.35px; stroke-linecap: round; stroke-miterlimit: 1"></ellipse>
                </g>
            </g>
            <g id="mantel" transform="matrix(-1.03245,-1.26439e-16,8.41448e-17,-0.687095,2203.14,1891.25)">
                <path d="M138.736,415.664L138.816,515.598L238.682,516.011L238.573,415.341L338.525,414.735L338.653,515.931L438.623,516.019L438.631,415.92L538.531,415.911L538.629,515.994L638.521,515.98L638.521,415.731L738.848,415.972L738.581,515.96L838.678,515.995L838.448,416.012L938.543,416.029L938.844,515.91L1038.68,516.353L1039.07,415.817L1138.78,415.695L1138.62,515.894L1238.71,515.749L1238.66,415.802L1338.79,415.816L1338.28,515.749L1438.67,515.796L1438.72,415.929L1538.6,415.978L1538.6,515.992L1638.71,515.815L1638.77,415.889L1738.64,415.606L1738.73,516.094L1838.67,515.875L1838.7,415.886L1938.53,415.717L1939.25,515.754L2038.39,515.821L2038.76,415.928" style="fill: none; stroke: #fff; stroke-width: 68.42px; stroke-linecap: square; stroke-miterlimit: 1"></path>
            </g>
            <g id="mantel1" serif:id="mantel" transform="matrix(-1.03245,-1.26439e-16,8.41448e-17,-0.687095,2203.14,1885.25)">
                <path d="M138.736,415.664L138.816,515.598L238.682,516.011L238.573,415.341L338.525,414.735L338.653,515.931L438.623,516.019L438.631,415.92L538.531,415.911L538.629,515.994L638.521,515.98L638.521,415.731L738.848,415.972L738.581,515.96L838.678,515.995L838.448,416.012L938.543,416.029L938.844,515.91L1038.68,516.353L1039.07,415.817L1138.78,415.695L1138.62,515.894L1238.71,515.749L1238.66,415.802L1338.79,415.816L1338.28,515.749L1438.67,515.796L1438.72,415.929L1538.6,415.978L1538.6,515.992L1638.71,515.815L1638.77,415.889L1738.64,415.606L1738.73,516.094L1838.67,515.875L1838.7,415.886L1938.53,415.717L1939.25,515.754L2038.39,515.821L2038.76,415.928" style="fill: none; stroke: #fff; stroke-width: 68.42px; stroke-linecap: square; stroke-miterlimit: 1"></path>
            </g>
        </g>
    </g>
</svg>
